<svg width="24" height="24" viewBox="0 0 24 24" fill="none" xmlns="http://www.w3.org/2000/svg">
<path d="M16.08 0.00439453H7.31C3.27 0.00439453 0 3.27445 0 7.31445V16.0845C0 20.1245 3.27 23.3945 7.31 23.3945H16.08C20.12 23.3945 23.39 20.1245 23.39 16.0845V7.31445C23.39 3.28445 20.11 0.00439453 16.08 0.00439453ZM21.2 16.0845C21.2 18.9145 18.91 21.2046 16.08 21.2046H7.31C4.49 21.2046 2.2 18.9145 2.19 16.0845V7.31445C2.19 4.49445 4.48 2.20434 7.31 2.19434H16.08C18.91 2.19434 21.2 4.48445 21.2 7.31445V16.0845V16.0845Z" fill="white"/>
<path d="M11.6869 5.85156C8.45691 5.85156 5.83691 8.47166 5.83691 11.7017C5.83691 14.9317 8.45691 17.5518 11.6869 17.5518C14.9169 17.5518 17.5369 14.9317 17.5369 11.7017C17.5369 8.47166 14.9169 5.85156 11.6869 5.85156ZM11.6869 15.3516C9.66691 15.3516 8.03692 13.7117 8.03692 11.7017C8.03692 9.69166 9.67691 8.05176 11.6869 8.05176C13.7069 8.05176 15.3369 9.69166 15.3369 11.7017C15.3369 13.7217 13.7069 15.3516 11.6869 15.3516Z" fill="white"/>
<path d="M17.9809 6.19336C18.4117 6.19336 18.7609 5.84387 18.7609 5.41309C18.7609 4.9823 18.4117 4.6333 17.9809 4.6333C17.5501 4.6333 17.2009 4.9823 17.2009 5.41309C17.2009 5.84387 17.5501 6.19336 17.9809 6.19336Z" fill="white"/>
</svg>
